<svg preserveAspectRatio="none" width="100%" height="100%" overflow="visible" style="display: block;" viewBox="0 0 28 25" fill="none" xmlns="http://www.w3.org/2000/svg">
<g id="bluesky butterfly logo" clip-path="url(#clip0_0_129)">
<path id="Vector" d="M6.06944 1.66893C9.27938 4.09305 12.7326 9.00753 14 11.6448V18.6106C14 18.4624 13.9431 18.6299 13.8206 18.9909C13.1591 20.9452 10.5752 28.5729 4.66681 22.4751C1.55575 19.2645 2.996 16.054 8.659 15.0847C5.41931 15.6391 1.77712 14.7229 0.777875 11.1308C0.49 10.0974 0 3.73253 0 2.87288C0 -1.43326 3.75331 -0.0797536 6.06944 1.66893ZM21.9306 1.66893C18.7206 4.09305 15.2674 9.00753 14 11.6448V18.6106C14 18.4624 14.0569 18.6299 14.1794 18.9909C14.8409 20.9452 17.4248 28.5729 23.3332 22.4751C26.4443 19.2645 25.004 16.054 19.341 15.0847C22.5807 15.6391 26.2229 14.7229 27.2221 11.1308C27.51 10.0974 28 3.73253 28 2.87288C28 -1.43326 24.2471 -0.0797536 21.9306 1.66893Z" fill="var(--fill-0, #0085FF)"/>
</g>
<defs>
<clipPath id="clip0_0_129">
<rect width="28" height="25" fill="white"/>
</clipPath>
</defs>
</svg>
