<?xml version="1.0" encoding="UTF-8"?>
<svg id="Layer_2" data-name="Layer 2" xmlns="http://www.w3.org/2000/svg" viewBox="0 0 962.3 680.63">
  <defs>
    <style>
      .cls-1 {
        fill: #cb6d00;
      }
    </style>
  </defs>
  <g id="Layer_2-2" data-name="Layer 2">
    <g id="Layer_1-2" data-name="Layer 1-2">
      <g>
        <path class="cls-1" d="M490.75,411.59c25.37,93.31,105.88,147.03,196.86,169.96,11.08,2.79,20.71,5.31,31.12,10.36,27.76,13.48,44.79,43.17,41.08,74-.92,7.68-9.06,11.89-15.57,10.91-5.7-.86-11.05.33-16.42,2.89l-81.35.92c-56.83-16.49-112.96-29.62-170.64-41.91-8.49-1.81-12.78-6.25-16.95-13.98l-6.2-11.49-29.7.09c-21.56-7.45-40.54-18.2-58.47-31.37l-27.75-20.39-36.71-33.08c-24.04-21.66-41.32-48.74-60.88-74.48l-24-31.58c-8.11-10.68-17.37-20.7-29.42-27.56-18.11,40.5-41.09,63.3-75.24,88.27-.99,17.39.84,33.61,4.06,50.7,17.02,3.51,28.5,14.72,34.25,30.22l6.43,17.37c.86,2.32.79,7.49-.37,9.69-1.48,2.8-6.87,4.38-10.39,4.55l-21.88,1.07-37.39.11-32.36-.2c-4.72-.03-15.66-1.6-17.18-7.1l-21.67-78.23-12.71-50.17c-4.59-18.1,18.58-43.83,18.57-69.45-.02-33.57-16.96-80.44-19.56-132.91-2.1-42.35,6.66-84.28,25.71-121.9,14.27-24.88,30.46-46.2,53.67-62.64l3.22-4.67c1.82-2.65-12.56-10.83-24.12-22.54-6.18-6.26-6.48-18.71,1.81-24.67C81.58,7.29,107.48.92,134.27.1c41.63-1.28,81.85,9.92,118.65,29.64,35.43,18.99,67,42.63,93.89,72.04l17.13,18.73,50.18,56.83c12.17,13.78,24.35,26.46,38.07,38.7,18.45,16.46,43.39,39.81,67.33,42.46l-5.62-43.69c-4.45-34.54-4.09-123.06,14.76-135.47,13.99-9.21,35.84,5.31,52.78,16.29,33.47,21.69,62.98,53.92,88.08,85.07l16.14,20.04c75.98-2.62,158.94,24.07,170.13,106.26,1.04,7.67,10.3,10.29,9.42,17.57-.25,2.06-5.15,5.34-7.21,5.27l-16.33-.55c-4.93,6.23-7.66,14.03-9.99,22.01-4.78,16.37-12.08,31.63-26.04,41.68-17.12,12.32-38.67,17.32-59.89,16.65-58.57-1.85-64.34,78.29-94.59,117.29-6.18,7.96-13.29,6.91-20.59,3.31-17.3-8.53-34.25-17.07-48.58-30.03l-8.52-7.7c-27.92-25.25-47.91-58.07-55.86-95.35l-3.04-18.74c-2.6-16.02.88-33,4.42-48.82,1.91-8.51,8.35-15.46,13.57-21.42l-7.4-27.49c-.32-1.18-2.48-3.42-3.4-3.03s-3.58,1.79-4.26,2.64l-12.31,15.49c-19.84,35.62-25.17,76.07-14.37,115.78l-.07.03ZM628.34,283.04c-3.98-5.88-5.08-11.34-2.74-15.25,6.1-10.21,17.78-2.28,23.15-10.1-14.62-38.02-34.2-72.94-62-102.97-9.82-10.61-29.1-27.85-35.8-21.56-4.81,19.02-4.71,39.85-2.54,59.29,4.67,41.68,12.31,87.23,35.97,121.45,3.71,5.37,8.06,9.92,14.79,10.47,7.88-15.9,17.27-28.2,29.17-41.33h0ZM778.54,324.94c-5.18-9.76-11.74-15.18-21.31-14.89-8.81.27-16.01,6.32-19.09,15.7-3.24,9.89-.3,21.28,8.62,26.55,7.7,4.55,18.68,5.23,26.04-1.61,6.72-6.25,10.63-16.55,5.75-25.75h0ZM712.39,659.56l-2.99-12.49c-.71-2.96-.91-6.45.33-8.32s9.25-1.49,10.28.82l8.61,19.23c3.22,1.13,9.91.31,12.49-1.73-.86-26.11-19.7-43.86-44.02-50.72l-62.11-17.54c-20.8,11.06-36.83,30-40.91,54.97l55.52,15.28c8.92,2.46,19.17.12,29.79-.33l-5.15-13.95c-.76-2.06,2.52-6.4,4.63-6.61,9.2-.93,12.66,8.99,16.14,20.62l17.4.77h-.01Z"/>
        <path class="cls-1" d="M896.36,637.61c-12.68-.53-27.24,2.09-39.93-.35l-80.13-15.39-16.81-26.47c13.33-13.24,25.09-26.56,31.2-44.15,2.56-7.37,4.28-17.99,12.15-22.17,4.17-2.21,14.95-.44,18.78,2.54,23.38,18.19,49.07,25.87,77.92,29.2,33.54,3.87,58.94,29.31,59.84,62.65.27,9.95-7.93,10.91-15.52,11.87-16.43,2.06-31.23,2.97-47.5,2.29v-.02ZM934.43,614.26c-1.79-5.82-3.9-10.85-10.7-9.78l6.12,18.42c1.7.59,7.14-.33,6.65-1.92l-2.07-6.72h0ZM897.54,625.84c4.53-8.91-2.35-18.15-10.46-18.18-.98,7.55,2.86,15.9,10.46,18.18Z"/>
        <path class="cls-1" d="M849.38,497.09c-27.59,9.36-54.08-2.42-76.48-20.12-8.6-6.8-18.62-13.93-19.51-26.53-.58-8.23,11.49-20.78,20.47-18.41,10.85,2.87,20.48,9.11,31.12,12.82,31.89,11.11,66.16,10.79,96.01-4.52,15.75-8.08,26.75-21.86,29.17-40.04-22.61-7.06-43.62-22.9-40.73-46.16,1.24-9.96,7.74-19.64,19.22-18.97l34.21,1.99c11.53.67,20.93,8.8,19.25,21.13l-3.49,25.66c-.82,6.04-2.27,9.31-2.82,15.43-2.13,23.76-23.19,53.11-45.95,60.49-5.12,1.66-10.01,3.96-14.77,6.75,9.8,12.47,17.69,23.72,16.08,38.68-1.12,10.33-6.32,18.69-14.53,22.49-21.13,9.77-33.88-9.49-47.25-30.69ZM839.45,484.03c1.37-5.64-3-9.83-8.43-11.13l-23.52-5.61c-.66-.03-1.59,5.58-.2,6.49l5.96,3.9c7.55,4.95,15.45,8.98,26.19,6.34h0Z"/>
        <path class="cls-1" d="M823.17,220.49c-26.6-18.78-53.19-32.02-84.7-32.6l-31.72-.58c2.98-17.13,8.47-30.51,14.82-45.67,12.95-30.88,28.46-60.19,50.1-85.59,6-7.04,14.42-12.85,23.86-10.32,8.7,2.33,13.53,11.49,16.21,20.12,9.67,31.11,13.26,63,15.11,95.63l.03,23.48c.01,11.63-.09,22.51-3.71,35.52h0Z"/>
        <path class="cls-1" d="M302.18,579.6l-77.72.21c-8.36.02-11.16-5.52-14.07-11.77l-28.27-60.84-10.65-23.55c-1.28-2.82-3.35-9.57-1.22-11.98l21.1-23.76c1.61-1.81,5.3-4.18,7.92-4.01l43.24,58.27,30.03,36.02c3.55,4.26,6.16,6.8,10.83,11.01l22.03,19.84c1.09.98,2.31,4.47,2.36,5.66.07,1.59-3.81,4.9-5.56,4.9h-.02Z"/>
      </g>
    </g>
  </g>
</svg>